<svg xmlns="http://www.w3.org/2000/svg" width="256.991" height="91.282" viewBox="0 0 256.991 91.282">
  <g id="Group_14" data-name="Group 14" transform="translate(-55.992 -343.629)">
    <g id="Group_2" data-name="Group 2" transform="translate(55.992 343.629)">
      <g id="Group_1" data-name="Group 1">
        <path id="Path_1" data-name="Path 1" d="M132.211,80.957l16.743-39.365L165.7,80.957Z" transform="translate(-20.458 10.236)" fill="#fafafa"/>
        <path id="Path_2" data-name="Path 2" d="M172.7,34.6,160.617,63.012,148.535,34.6Z" transform="translate(84.292 -34.605)" fill="#fafafa"/>
        <path id="Path_3" data-name="Path 3" d="M193.039,94.91l-13.221,30.977L141.424,34.6h26.685Z" transform="translate(38.661 -34.605)" fill="#fafafa"/>
        <path id="Path_4" data-name="Path 4" d="M186.08,94.91l-13.221,30.977L134.465,34.6H161.15Z" transform="translate(-5.995 -34.605)" fill="#fafafa"/>
        <path id="Path_5" data-name="Path 5" d="M117.144,34.6l12.082,28.407L141.309,34.6Z" transform="translate(-117.144 -34.605)" fill="#fafafa"/>
        <path id="Path_6" data-name="Path 6" d="M120.554,94.91l13.221,30.977L172.169,34.6H145.484Z" transform="translate(-95.263 -34.605)" fill="#fafafa"/>
        <path id="Path_7" data-name="Path 7" d="M127.513,94.91l13.221,30.977L179.128,34.6H152.442Z" transform="translate(-50.607 -34.605)" fill="#fafafa"/>
      </g>
    </g>
  </g>
</svg>
