<?xml version="1.0"?>
<svg xmlns="http://www.w3.org/2000/svg" xmlns:xlink="http://www.w3.org/1999/xlink" xmlns:svgjs="http://svgjs.com/svgjs" version="1.1" width="512" height="512" x="0" y="0" viewBox="0 0 490.666 490.666" style="enable-background:new 0 0 512 512" xml:space="preserve" class=""><g>
<g xmlns="http://www.w3.org/2000/svg">
	<g>
		<path d="M394.667,373.333c-29.397,0-53.333,23.936-53.333,53.333S365.269,480,394.667,480S448,456.064,448,426.666    S424.064,373.333,394.667,373.333z M394.667,458.666c-17.643,0-32-14.357-32-32c0-17.643,14.357-32,32-32    c17.643,0,32,14.357,32,32C426.667,444.309,412.309,458.666,394.667,458.666z" fill="#7f19a8" data-original="#000000" style="" class=""/>
	</g>
</g>
<g xmlns="http://www.w3.org/2000/svg">
	<g>
		<path d="M181.333,373.333c-29.397,0-53.333,23.936-53.333,53.333S151.936,480,181.333,480s53.333-23.936,53.333-53.333    S210.731,373.333,181.333,373.333z M181.333,458.666c-17.643,0-32-14.357-32-32c0-17.643,14.357-32,32-32s32,14.357,32,32    C213.333,444.309,198.976,458.666,181.333,458.666z" fill="#7f19a8" data-original="#000000" style="" class=""/>
	</g>
</g>
<g xmlns="http://www.w3.org/2000/svg">
	<g>
		<path d="M437.333,330.666H191.125c-25.323,0-47.317-18.027-52.288-42.88L85.12,19.242c-1.003-4.992-5.376-8.576-10.453-8.576h-64    C4.779,10.666,0,15.445,0,21.333S4.779,32,10.667,32H65.92l51.989,259.989c6.955,34.773,37.76,60.011,73.216,60.011h246.208    c5.888,0,10.667-4.779,10.667-10.667C448,335.445,443.221,330.666,437.333,330.666z" fill="#7f19a8" data-original="#000000" style="" class=""/>
	</g>
</g>
<g xmlns="http://www.w3.org/2000/svg">
	<g>
		<path d="M488,78.272c-2.027-2.283-4.928-3.605-8-3.605H96c-5.888,0-10.667,4.779-10.667,10.667S90.112,96,96,96h371.925    l-18.816,150.507l-311.851,41.579c-5.845,0.789-9.963,6.165-9.173,11.989c0.725,5.355,5.291,9.259,10.56,9.259    c0.469,0,0.939-0.021,1.429-0.085l320-42.667c4.8-0.64,8.576-4.437,9.173-9.259l21.333-170.667    C490.965,83.626,490.027,80.554,488,78.272z" fill="#7f19a8" data-original="#000000" style="" class=""/>
	</g>
</g>
<g xmlns="http://www.w3.org/2000/svg">
	<g>
		<path d="M191.851,254.25l-21.333-128c-0.96-5.803-6.464-9.771-12.267-8.768c-5.824,0.96-9.749,6.464-8.789,12.267l21.333,128    c0.875,5.227,5.397,8.917,10.517,8.917c0.597,0,1.173-0.043,1.771-0.149C188.885,265.557,192.811,260.053,191.851,254.25z" fill="#7f19a8" data-original="#000000" style="" class=""/>
	</g>
</g>
<g xmlns="http://www.w3.org/2000/svg">
	<g>
		<path d="M245.269,244.373L234.603,127.04c-0.533-5.867-5.547-10.24-11.584-9.664c-5.867,0.512-10.197,5.717-9.664,11.584    l10.667,117.333c0.512,5.547,5.163,9.707,10.624,9.707c0.341,0,0.661,0,0.96-0.043    C241.472,255.445,245.803,250.24,245.269,244.373z" fill="#7f19a8" data-original="#000000" style="" class=""/>
	</g>
</g>
<g xmlns="http://www.w3.org/2000/svg">
	<g>
		<path d="M288,117.333c-5.888,0-10.667,4.779-10.667,10.667v106.667c0,5.888,4.779,10.667,10.667,10.667    s10.667-4.779,10.667-10.667V128C298.667,122.112,293.888,117.333,288,117.333z" fill="#7f19a8" data-original="#000000" style="" class=""/>
	</g>
</g>
<g xmlns="http://www.w3.org/2000/svg">
	<g>
		<path d="M353.152,117.397c-5.632-0.555-11.115,3.584-11.776,9.429l-10.667,96c-0.64,5.845,3.584,11.115,9.429,11.776    c0.405,0.043,0.789,0.064,1.195,0.064c5.376,0,10.005-4.032,10.581-9.493l10.667-96    C363.221,123.328,358.997,118.058,353.152,117.397z" fill="#7f19a8" data-original="#000000" style="" class=""/>
	</g>
</g>
<g xmlns="http://www.w3.org/2000/svg">
	<g>
		<path d="M418.56,117.653c-5.76-1.472-11.499,2.027-12.928,7.765l-21.333,85.333c-1.429,5.717,2.048,11.499,7.765,12.928    c0.875,0.213,1.749,0.32,2.603,0.32c4.8,0,9.131-3.221,10.325-8.085l21.333-85.333    C427.755,124.863,424.277,119.082,418.56,117.653z" fill="#7f19a8" data-original="#000000" style="" class=""/>
	</g>
</g>
<g xmlns="http://www.w3.org/2000/svg">
</g>
<g xmlns="http://www.w3.org/2000/svg">
</g>
<g xmlns="http://www.w3.org/2000/svg">
</g>
<g xmlns="http://www.w3.org/2000/svg">
</g>
<g xmlns="http://www.w3.org/2000/svg">
</g>
<g xmlns="http://www.w3.org/2000/svg">
</g>
<g xmlns="http://www.w3.org/2000/svg">
</g>
<g xmlns="http://www.w3.org/2000/svg">
</g>
<g xmlns="http://www.w3.org/2000/svg">
</g>
<g xmlns="http://www.w3.org/2000/svg">
</g>
<g xmlns="http://www.w3.org/2000/svg">
</g>
<g xmlns="http://www.w3.org/2000/svg">
</g>
<g xmlns="http://www.w3.org/2000/svg">
</g>
<g xmlns="http://www.w3.org/2000/svg">
</g>
<g xmlns="http://www.w3.org/2000/svg">
</g>
</g></svg>
